<svg xmlns="http://www.w3.org/2000/svg" width="29.983" height="21.521" viewBox="0 0 29.983 21.521"><defs><style>.a{fill:#fff;}</style></defs><g transform="translate(0 0)"><path class="a" d="M578.889-370.668a.668.668,0,0,1-.472-.2,4.2,4.2,0,0,0-5.9-.01.669.669,0,0,1-.945,0,.669.669,0,0,1,0-.945,5.535,5.535,0,0,1,7.786.013.668.668,0,0,1,0,.945A.667.667,0,0,1,578.889-370.668Zm-9.817-2.975a.667.667,0,0,1-.474-.2.668.668,0,0,1,0-.946,9.748,9.748,0,0,1,13.731,0,.668.668,0,0,1,0,.946.669.669,0,0,1-.945,0,8.409,8.409,0,0,0-11.844,0A.665.665,0,0,1,569.072-373.644Zm19.905-7.118a.666.666,0,0,1-.472-.2,18.476,18.476,0,0,0-26.075,0,.668.668,0,0,1-.945,0,.668.668,0,0,1,0-.945,19.815,19.815,0,0,1,27.964,0,.668.668,0,0,1,0,.945A.666.666,0,0,1,588.978-380.762Z" transform="translate(-561.29 387.678)"/></g><g transform="translate(14.5 4.289)"><path class="a" d="M605.343-359.355a.666.666,0,0,1-.473-.2.668.668,0,0,1,0-.945l14.146-14.153a.669.669,0,0,1,.945,0,.669.669,0,0,1,0,.945l-14.146,14.153A.665.665,0,0,1,605.343-359.355Z" transform="translate(-604.674 374.845)"/></g><g transform="translate(3.774 5.325)"><path class="a" d="M573.252-366.376a.667.667,0,0,1-.473-.2.668.668,0,0,1,0-.945,14.341,14.341,0,0,1,10.207-4.229h0a14.342,14.342,0,0,1,10.206,4.227l-.943.947a13.015,13.015,0,0,0-9.263-3.837h0a13.01,13.01,0,0,0-9.261,3.837A.668.668,0,0,1,573.252-366.376Z" transform="translate(-572.583 371.746)"/></g><g transform="translate(1.016 11.495)"><path class="a" d="M577.5-343.259h-.007a1.753,1.753,0,0,1-1.25-.523,1.747,1.747,0,0,1-.508-1.248,1.75,1.75,0,0,1,.523-1.242,1.748,1.748,0,0,1,1.237-.508h.011a1.749,1.749,0,0,1,1.242.523,1.748,1.748,0,0,1,.508,1.246h0a1.746,1.746,0,0,1-.519,1.243A1.746,1.746,0,0,1,577.5-343.259Zm0-2.185a.424.424,0,0,0-.424.421.421.421,0,0,0,.122.3.42.42,0,0,0,.3.126.429.429,0,0,0,.3-.121.416.416,0,0,0,.124-.3v0a.42.42,0,0,0-.122-.3.421.421,0,0,0-.3-.126Zm-12.008-5.528h-.008a1.158,1.158,0,0,1-1.149-1.164,1.144,1.144,0,0,1,.381-.85.669.669,0,0,1,.118-.085.661.661,0,0,1,.14-.092,1.193,1.193,0,0,1,.5-.123,1.166,1.166,0,0,1,.843.344,1.148,1.148,0,0,1,.333.82,1.149,1.149,0,0,1-.344.816A1.149,1.149,0,0,1,565.486-350.972Zm.071-.991h0Z" transform="translate(-564.329 353.285)"/></g></svg>