<svg xmlns="http://www.w3.org/2000/svg" xmlns:xlink="http://www.w3.org/1999/xlink" width="28.703" height="29" viewBox="0 0 28.703 29"><defs><style>.a{fill:#fff;}.b{clip-path:url(#a);}</style><clipPath id="a"><rect class="a" width="28.703" height="29"/></clipPath></defs><g transform="translate(-71 -18.39)"><g transform="translate(71 18.39)"><g class="b" transform="translate(0 0)"><path class="a" d="M84.3,18.352A14.413,14.413,0,0,0,71.056,31.643a16.872,16.872,0,0,0,.389,4.506,14.491,14.491,0,0,0,3.09,5.921,1.016,1.016,0,0,0,.553.343,1,1,0,0,0,.875-.229,1.128,1.128,0,0,0,.173-1.357,12.413,12.413,0,0,1-2.686-5.013,14.345,14.345,0,0,1-.362-4.206,12.349,12.349,0,1,1,8.325,12.742l-.093.028a1.059,1.059,0,0,0-.936.584,1.131,1.131,0,0,0,.683,1.412c.232.074.612.189,1.082.3a16.451,16.451,0,0,0,3.229.368A14.364,14.364,0,1,0,84.3,18.352Z" transform="translate(-71.019 -18.336)"/></g></g><path class="a" d="M106.1,54.934a.99.99,0,0,0,.717.3,1.032,1.032,0,0,0,.717-.3l6.527-6.527a1.015,1.015,0,0,0,0-1.434l-6.527-6.527a1.014,1.014,0,0,0-1.434,1.434l5.81,5.81L106.1,53.5a1.015,1.015,0,0,0,0,1.434Zm0,0" transform="translate(-24.046 -15.035)"/></g></svg>